HIERARCHY
ROOT hip
{
  OFFSET 0 0 0
  CHANNELS 6 Xposition Yposition Zposition Zrotation Yrotation Xrotation
  JOINT abdomen
  {
    OFFSET 0 20.6881 -0.73152
    CHANNELS 3 Zrotation Xrotation Yrotation
    JOINT chest
    {
      OFFSET 0 11.7043 -0.48768
      CHANNELS 3 Zrotation Xrotation Yrotation
      JOINT neck
      {
        OFFSET 0 22.1894 -2.19456
        CHANNELS 3 Zrotation Xrotation Yrotation
        JOINT head
        {
          OFFSET -0.24384 7.07133 1.2192
          CHANNELS 3 Zrotation Xrotation Yrotation
          JOINT leftEye
          {
            OFFSET 4.14528 8.04674 8.04672
            CHANNELS 3 Zrotation Xrotation Yrotation
            End Site
            {
              OFFSET 1 0 0
            }
          }
          JOINT rightEye
          {
            OFFSET -3.6576 8.04674 8.04672
            CHANNELS 3 Zrotation Xrotation Yrotation
            End Site
            {
              OFFSET 1 0 0
            }
          }
        }
      }
      JOINT rCollar
      {
        OFFSET -2.68224 19.2634 -4.8768
        CHANNELS 3 Zrotation Xrotation Yrotation
        JOINT rShldr
        {
          OFFSET -8.77824 -1.95073 1.46304
          CHANNELS 3 Zrotation Xrotation Yrotation
          JOINT rForeArm
          {
            OFFSET -28.1742 -1.7115 0.48768
            CHANNELS 3 Zrotation Xrotation Yrotation
            JOINT rHand
            {
              OFFSET -22.5879 0.773209 7.07136
              CHANNELS 3 Zrotation Xrotation Yrotation
              JOINT rThumb1
              {
                OFFSET -1.2192 -0.487915 3.41376
                CHANNELS 3 Zrotation Xrotation Yrotation
                JOINT rThumb2
                {
                  OFFSET -3.37035 -0.52449 3.41376
                  CHANNELS 3 Zrotation Xrotation Yrotation
                  End Site
                  {
                    OFFSET -1.78271 -1.18214 1.43049
                  }
                }
              }
              JOINT rIndex1
              {
                OFFSET -7.75947 0.938293 5.60832
                CHANNELS 3 Zrotation Xrotation Yrotation
                JOINT rIndex2
                {
                  OFFSET -2.54057 -0.884171 1.56538
                  CHANNELS 3 Zrotation Xrotation Yrotation
                  End Site
                  {
                    OFFSET -1.62519 -0.234802 1.16502
                  }
                }
              }
              JOINT rMid1
              {
                OFFSET -8.24714 1.18213 3.41376
                CHANNELS 3 Zrotation Xrotation Yrotation
                JOINT rMid2
                {
                  OFFSET -3.10165 -0.590103 1.0647
                  CHANNELS 3 Zrotation Xrotation Yrotation
                  End Site
                  {
                    OFFSET -2.48547 -0.328903 0.83742
                  }
                }
              }
              JOINT rRing1
              {
                OFFSET -8.82822 0.546677 1.51678
                CHANNELS 3 Zrotation Xrotation Yrotation
                JOINT rRing2
                {
                  OFFSET -2.60934 -0.819778 -0.0198488
                  CHANNELS 3 Zrotation Xrotation Yrotation
                  End Site
                  {
                    OFFSET -2.33842 -0.294052 0.168128
                  }
                }
              }
              JOINT rPinky1
              {
                OFFSET -8.27202 -0.0477905 -0.4584
                CHANNELS 3 Zrotation Xrotation Yrotation
                JOINT rPinky2
                {
                  OFFSET -1.82734 -0.647385 -0.700984
                  CHANNELS 3 Zrotation Xrotation Yrotation
                  End Site
                  {
                    OFFSET -1.69225 -0.51767 -0.607171
                  }
                }
              }
            }
          }
        }
      }
      JOINT lCollar
      {
        OFFSET 2.68224 19.2634 -4.8768
        CHANNELS 3 Zrotation Xrotation Yrotation
        JOINT lShldr
        {
          OFFSET 8.77824 -1.95073 1.46304
          CHANNELS 3 Zrotation Xrotation Yrotation
          JOINT lForeArm
          {
            OFFSET 28.1742 -1.7115 0.48768
            CHANNELS 3 Zrotation Xrotation Yrotation
            JOINT lHand
            {
              OFFSET 22.5879 0.773209 7.07136
              CHANNELS 3 Zrotation Xrotation Yrotation
              JOINT lThumb1
              {
                OFFSET 1.2192 -0.487915 3.41376
                CHANNELS 3 Zrotation Xrotation Yrotation
                JOINT lThumb2
                {
                  OFFSET 3.37035 -0.52449 3.41376
                  CHANNELS 3 Zrotation Xrotation Yrotation
                  End Site
                  {
                    OFFSET 1.78271 -1.18214 1.43049
                  }
                }
              }
              JOINT lIndex1
              {
                OFFSET 7.75947 0.938293 5.60832
                CHANNELS 3 Zrotation Xrotation Yrotation
                JOINT lIndex2
                {
                  OFFSET 2.54057 -0.884171 1.56538
                  CHANNELS 3 Zrotation Xrotation Yrotation
                  End Site
                  {
                    OFFSET 1.62519 -0.234802 1.16502
                  }
                }
              }
              JOINT lMid1
              {
                OFFSET 8.24714 1.18213 3.41376
                CHANNELS 3 Zrotation Xrotation Yrotation
                JOINT lMid2
                {
                  OFFSET 3.10165 -0.590103 1.0647
                  CHANNELS 3 Zrotation Xrotation Yrotation
                  End Site
                  {
                    OFFSET 2.48547 -0.328903 0.83742
                  }
                }
              }
              JOINT lRing1
              {
                OFFSET 8.82822 0.546677 1.51678
                CHANNELS 3 Zrotation Xrotation Yrotation
                JOINT lRing2
                {
                  OFFSET 2.60934 -0.819778 -0.0198488
                  CHANNELS 3 Zrotation Xrotation Yrotation
                  End Site
                  {
                    OFFSET 2.33842 -0.294052 0.168128
                  }
                }
              }
              JOINT lPinky1
              {
                OFFSET 8.27202 -0.0477905 -0.4584
                CHANNELS 3 Zrotation Xrotation Yrotation
                JOINT lPinky2
                {
                  OFFSET 1.82734 -0.647385 -0.700984
                  CHANNELS 3 Zrotation Xrotation Yrotation
                  End Site
                  {
                    OFFSET 1.69225 -0.51767 -0.607171
                  }
                }
              }
            }
          }
        }
      }
    }
  }
  JOINT rButtock
  {
    OFFSET -8.77824 4.35084 1.2192
    CHANNELS 3 Zrotation Xrotation Yrotation
    JOINT rThigh
    {
      OFFSET 0 -1.70687 -2.19456
      CHANNELS 3 Zrotation Xrotation Yrotation
      JOINT rShin
      {
        OFFSET 0 -36.8199 0.73152
        CHANNELS 3 Zrotation Xrotation Yrotation
        JOINT rFoot
        {
          OFFSET 0.73152 -45.1104 -5.12064
          CHANNELS 3 Zrotation Xrotation Yrotation
          End Site
          {
            OFFSET -1.1221 -3.69964 12.103
          }
        }
      }
    }
  }
  JOINT lButtock
  {
    OFFSET 8.77824 4.35084 1.2192
    CHANNELS 3 Zrotation Xrotation Yrotation
    JOINT lThigh
    {
      OFFSET 0 -1.70687 -2.19456
      CHANNELS 3 Zrotation Xrotation Yrotation
      JOINT lShin
      {
        OFFSET 0 -36.8199 0.73152
        CHANNELS 3 Zrotation Xrotation Yrotation
        JOINT lFoot
        {
          OFFSET -0.73152 -45.1104 -5.12064
          CHANNELS 3 Zrotation Xrotation Yrotation
          End Site
          {
            OFFSET 1.1221 -3.69964 12.103
          }
        }
      }
    }
  }
}
MOTION
Frames:	9
Frame Time:	0.00833333
98.1959 75.7902 -9.19368 181.695 -34.7243 -162.65 2.33735 13.9309 -13.103 2.56024 1.64842 -3.77848 -1.05979 13.8853 10.0882 -5.15241 -47.5199 18.1097 -0.0 0.0 0.0 -0.0 0.0 0.0 -5.24469e-13 2.53271e-13 7.50815e-13 44.418 41.5291 40.4473 -27.9342 -40.8444 85.3698 6.40105e-05 -0.525651 -0.0738977 -9.11136e-10 7.29501e-10 -1.36492e-09 -1.58814e-09 1.23925e-09 -2.35549e-09 -9.11128e-10 7.29502e-10 -1.36493e-09 7.73091 5.47488 0.417314 -9.11136e-10 7.29502e-10 -1.36492e-09 2.90554 0.965183 0.102902 -9.11127e-10 7.29505e-10 -1.36492e-09 10.2786 0.731801 0.0259123 -9.11137e-10 7.295e-10 -1.36491e-09 2.22167 -0.733487 -0.20892 -5.24547e-13 2.53281e-13 7.50618e-13 -32.8553 35.7613 -48.4061 28.4064 -37.0885 -78.8037 0.0915003 8.66615 -1.22721 3.52071e-09 -3.17872e-08 -1.3529e-09 6.05474e-09 -5.44458e-08 -2.3638e-09 3.52072e-09 -3.17872e-08 -1.35288e-09 -7.73091 5.47488 -0.417314 3.52072e-09 -3.17872e-08 -1.35289e-09 -2.90554 0.965183 -0.102902 3.52071e-09 -3.17872e-08 -1.35289e-09 -10.2786 0.731801 -0.0259123 3.52072e-09 -3.17872e-08 -1.3529e-09 -2.22167 -0.733487 0.20892 -2.03217e-16 0.0 -3.88251e-19 6.02935 -66.3818 17.5279 -0.737452 51.6695 0.707499 1.27973 -4.03871 8.89226 2.03217e-16 0.0 3.88251e-19 -5.9436 -14.0375 19.6798 0.468042 49.8317 -1.62176 -2.00979 -16.678 -7.72599
98.34 75.4194 -8.96134 182.07 -33.0443 -162.367 2.74467 13.6129 -13.7932 2.93705 1.7783 -3.96309 -0.886462 13.7613 10.3948 -5.60289 -47.2982 18.5398 -0.0 0.0 0.0 -0.0 0.0 0.0 -1.92938e-13 2.35959e-13 1.57018e-13 42.7629 39.224 43.4508 -28.1161 -39.8985 83.6466 0.000822492 0.189142 0.0265579 -9.91098e-10 -1.00866e-09 -4.70441e-10 -1.71589e-09 -1.74564e-09 -8.09775e-10 -9.9109e-10 -1.00866e-09 -4.7045e-10 7.73091 5.47488 0.417314 -9.91098e-10 -1.00866e-09 -4.70441e-10 2.90554 0.965183 0.102902 -9.91089e-10 -1.00866e-09 -4.70443e-10 10.2786 0.731801 0.0259123 -9.91099e-10 -1.00866e-09 -4.70437e-10 2.22167 -0.733487 -0.20892 -1.92952e-13 2.35956e-13 1.56822e-13 -30.5556 32.6444 -48.4857 28.4331 -36.2471 -77.4158 0.0693061 7.60495 -1.07489 2.05145e-09 -1.95155e-08 -6.10346e-10 3.52932e-09 -3.34271e-08 -1.06526e-09 2.05146e-09 -1.95155e-08 -6.10329e-10 -7.73091 5.47488 -0.417314 2.05146e-09 -1.95155e-08 -6.10341e-10 -2.90554 0.965183 -0.102902 2.05145e-09 -1.95155e-08 -6.10342e-10 -10.2786 0.731801 -0.0259123 2.05146e-09 -1.95155e-08 -6.1035e-10 -2.22167 -0.733487 0.20892 -2.03217e-16 0.0 -3.88251e-19 9.49254 -67.9106 20.4257 -0.782306 52.8978 0.785813 0.947908 -2.73444 8.39205 2.03217e-16 0.0 3.88251e-19 -7.85114 -12.4652 21.2788 0.327633 45.0209 -1.52692 -1.8987 -17.6473 -7.14507
98.5192 74.9474 -8.7069 182.483 -31.4785 -162.041 3.14207 13.2879 -14.436 3.31688 1.94753 -4.13757 -0.738321 13.6316 10.6583 -5.91245 -47.1096 18.9428 -0.0 0.0 0.0 -0.0 0.0 0.0 1.37866e-13 1.89722e-13 -4.10293e-13 41.4855 36.9552 46.2113 -28.2494 -38.9078 81.9373 -0.000112723 0.834466 0.117271 -1.01527e-09 -2.50979e-09 3.8706e-10 -1.74759e-09 -4.32088e-09 6.72085e-10 -1.01526e-09 -2.5098e-09 3.87049e-10 7.73091 5.47488 0.417314 -1.01527e-09 -2.50979e-09 3.87058e-10 2.90554 0.965183 0.102902 -1.01526e-09 -2.50979e-09 3.87057e-10 10.2786 0.731801 0.0259123 -1.01527e-09 -2.50979e-09 3.87059e-10 2.22167 -0.733487 -0.20892 1.37908e-13 1.89709e-13 -4.10488e-13 -28.0191 29.6496 -48.5117 28.4298 -35.3305 -75.9256 0.0512526 6.53528 -0.922309 4.99186e-10 -7.69765e-09 3.14913e-10 8.61502e-10 -1.32076e-08 5.49422e-10 4.99184e-10 -7.69766e-09 3.1493e-10 -7.73091 5.47488 -0.417314 4.99186e-10 -7.69765e-09 3.14919e-10 -2.90554 0.965183 -0.102902 4.99182e-10 -7.69765e-09 3.14917e-10 -10.2786 0.731801 -0.0259123 4.99192e-10 -7.69765e-09 3.14913e-10 -2.22167 -0.733487 0.20892 -2.03217e-16 0.0 -3.88251e-19 13.1753 -69.3507 23.5696 -0.829445 54.0832 0.871301 0.630156 -1.41106 7.82286 2.03217e-16 0.0 3.88251e-19 -9.78352 -10.9712 22.5725 0.211341 40.1805 -1.45783 -1.77483 -18.5362 -6.59615
98.685 74.4875 -8.43974 182.858 -30.061 -161.712 3.45787 13.0581 -15.1157 3.74492 2.12906 -4.33211 -0.650876 13.5334 10.902 -6.00617 -46.9583 19.3998 -0.0 0.0 0.0 -0.0 0.0 0.0 3.53792e-13 1.46315e-13 -7.85547e-13 40.4993 34.8815 48.71 -28.3359 -37.96 80.3381 -0.00209918 1.30814 0.18388 -9.44173e-10 -3.07472e-09 8.62811e-10 -1.61867e-09 -5.28589e-09 1.49412e-09 -9.44166e-10 -3.07473e-09 8.62799e-10 7.73091 5.47488 0.417314 -9.44173e-10 -3.07472e-09 8.62808e-10 2.90554 0.965183 0.102902 -9.44165e-10 -3.07472e-09 8.62808e-10 10.2786 0.731801 0.0259123 -9.44175e-10 -3.07471e-09 8.62808e-10 2.22167 -0.733487 -0.20892 3.53855e-13 1.46297e-13 -7.85746e-13 -25.3401 26.9231 -48.3508 28.405 -34.3927 -74.3437 0.0383212 5.5786 -0.786533 -4.76923e-10 3.723e-10 9.4459e-10 -8.1564e-10 6.03065e-10 1.64742e-09 -4.76926e-10 3.72293e-10 9.44606e-10 -7.73091 5.47488 -0.417314 -4.76923e-10 3.72296e-10 9.44596e-10 -2.90554 0.965183 -0.102902 -4.76927e-10 3.72298e-10 9.44595e-10 -10.2786 0.731801 -0.0259123 -4.76917e-10 3.72305e-10 9.44593e-10 -2.22167 -0.733487 0.20892 -2.03217e-16 0.0 -3.88251e-19 16.7413 -70.4404 26.8393 -0.86884 55.0202 0.947513 0.361451 -0.211834 7.24148 2.03217e-16 0.0 3.88251e-19 -11.7196 -9.47106 23.4601 0.118572 35.6119 -1.407 -1.68167 -19.366 -6.19227
98.8213 74.0612 -8.17048 183.141 -28.8345 -161.43 3.67359 12.9629 -15.8969 4.28774 2.33834 -4.5703 -0.700547 13.4562 11.1632 -5.7991 -46.8415 19.9692 -0.0 0.0 0.0 -0.0 0.0 0.0 4.03409e-13 1.10358e-13 -8.88875e-13 39.6921 33.0245 51.0456 -28.3972 -37.0693 78.8052 -0.00347645 1.51901 0.213541 -7.54876e-10 -2.23858e-09 6.63788e-10 -1.29143e-09 -3.84115e-09 1.14995e-09 -7.5487e-10 -2.23859e-09 6.63776e-10 7.73091 5.47488 0.417314 -7.54876e-10 -2.23858e-09 6.63786e-10 2.90554 0.965183 0.102902 -7.54868e-10 -2.23858e-09 6.63787e-10 10.2786 0.731801 0.0259123 -7.54879e-10 -2.23858e-09 6.63787e-10 2.22167 -0.733487 -0.20892 4.03434e-13 1.10343e-13 -8.89088e-13 -22.483 24.3462 -47.8308 28.3524 -33.3908 -72.6439 0.0271383 4.68268 -0.659676 -4.40717e-10 2.68848e-09 1.23916e-09 -7.50322e-10 4.56626e-09 2.15724e-09 -4.40721e-10 2.68847e-09 1.23918e-09 -7.73091 5.47488 -0.417314 -4.40716e-10 2.68848e-09 1.23917e-09 -2.90554 0.965183 -0.102902 -4.40722e-10 2.68848e-09 1.23917e-09 -10.2786 0.731801 -0.0259123 -4.40712e-10 2.68848e-09 1.23917e-09 -2.22167 -0.733487 0.20892 -2.03217e-16 0.0 -3.88251e-19 19.9053 -71.0982 30.0374 -0.893636 55.6278 1.00553 0.122368 0.948499 6.557 2.03217e-16 0.0 3.88251e-19 -13.6477 -7.97398 23.7756 0.0460438 31.3975 -1.36981 -1.64232 -20.1004 -5.99069
98.8995 73.7321 -7.9126 183.31 -27.8051 -161.228 3.83226 12.9422 -16.7215 4.90408 2.58214 -4.83096 -0.846458 13.3871 11.4194 -5.35105 -46.7567 20.5963 -0.0 0.0 0.0 -0.0 0.0 0.0 3.54596e-13 6.61975e-14 -8.20487e-13 39.0685 31.31 53.238 -28.4339 -36.1905 77.2944 -0.00359902 1.54287 0.2169 -4.72565e-10 -4.67072e-10 4.08987e-11 -8.07126e-10 -7.8676e-10 7.32634e-11 -4.7256e-10 -4.67078e-10 4.08884e-11 7.73091 5.47488 0.417314 -4.72564e-10 -4.67073e-10 4.08991e-11 2.90554 0.965183 0.102902 -4.72557e-10 -4.67076e-10 4.08995e-11 10.2786 0.731801 0.0259123 -4.7257e-10 -4.67073e-10 4.09029e-11 2.22167 -0.733487 -0.20892 3.54542e-13 6.61934e-14 -8.2072e-13 -19.3602 21.8356 -47.0697 28.2475 -32.2816 -70.8538 0.0174423 3.81099 -0.536443 1.69454e-10 1.38352e-09 1.42438e-09 3.03271e-10 2.32143e-09 2.47286e-09 1.69449e-10 1.38351e-09 1.42439e-09 -7.73091 5.47488 -0.417314 1.69455e-10 1.38351e-09 1.42439e-09 -2.90554 0.965183 -0.102902 1.69447e-10 1.38352e-09 1.42439e-09 -10.2786 0.731801 -0.0259123 1.69458e-10 1.38352e-09 1.42439e-09 -2.22167 -0.733487 0.20892 -2.03217e-16 0.0 -3.88251e-19 22.6978 -71.4819 33.0755 -0.907601 56.0245 1.05306 -0.0882575 2.1054 5.77265 2.03217e-16 0.0 3.88251e-19 -15.5182 -6.49585 23.6315 -0.0125074 27.3758 -1.34295 -1.64196 -20.7419 -5.92507
98.9042 73.5226 -7.6741 183.373 -26.9475 -161.103 3.95514 12.948 -17.4896 5.47644 2.82046 -5.07702 -0.949145 13.3592 11.6037 -4.80417 -46.7087 21.1934 -0.0 0.0 0.0 -0.0 0.0 0.0 2.72162e-13 1.51783e-14 -6.84932e-13 38.6941 29.7538 55.1604 -28.4389 -35.3391 75.8695 -0.00321866 1.528 0.214805 -1.29962e-10 1.54314e-09 -5.34734e-10 -2.19639e-10 2.67843e-09 -9.21887e-10 -1.29959e-10 1.54314e-09 -5.34742e-10 7.73091 5.47488 0.417314 -1.29961e-10 1.54314e-09 -5.34731e-10 2.90554 0.965183 0.102902 -1.29954e-10 1.54314e-09 -5.34731e-10 10.2786 0.731801 0.0259123 -1.29969e-10 1.54314e-09 -5.34725e-10 2.22167 -0.733487 -0.20892 2.72029e-13 1.51859e-14 -6.85181e-13 -16.0181 19.5955 -46.3024 28.0887 -31.1244 -69.0359 0.0113084 3.10864 -0.437316 7.01005e-10 -6.28802e-10 1.41986e-09 1.21927e-09 -1.12423e-09 2.45965e-09 7.00999e-10 -6.28802e-10 1.41986e-09 -7.73091 5.47488 -0.417314 7.01007e-10 -6.28804e-10 1.41986e-09 -2.90554 0.965183 -0.102902 7.00997e-10 -6.288e-10 1.41986e-09 -10.2786 0.731801 -0.0259123 7.01007e-10 -6.28804e-10 1.41986e-09 -2.22167 -0.733487 0.20892 -2.03217e-16 0.0 -3.88251e-19 25.1477 -71.6986 35.8887 -0.914636 56.3034 1.09682 -0.236486 3.03752 5.08404 2.03217e-16 0.0 3.88251e-19 -17.275 -4.96848 23.3436 -0.0595306 23.4828 -1.32184 -1.66739 -21.3701 -5.92381
98.8767 73.3525 -7.46024 183.376 -26.2306 -161.038 4.06055 12.9347 -18.1008 5.88608 3.01346 -5.27133 -0.869469 13.4056 11.6493 -4.30028 -46.7044 21.6736 -0.0 0.0 0.0 -0.0 0.0 0.0 2.20917e-13 -4.13554e-14 -5.86763e-13 38.6279 28.3823 56.6962 -28.4111 -34.5399 74.5861 -0.00323033 1.62265 0.22811 2.40211e-10 3.0954e-09 -5.91987e-10 4.17165e-10 5.35557e-09 -1.02143e-09 2.40214e-10 3.09541e-09 -5.91993e-10 7.73091 5.47488 0.417314 2.40213e-10 3.0954e-09 -5.91984e-10 2.90554 0.965183 0.102902 2.40219e-10 3.0954e-09 -5.91983e-10 10.2786 0.731801 0.0259123 2.40204e-10 3.0954e-09 -5.91974e-10 2.22167 -0.733487 -0.20892 2.20748e-13 -4.13394e-14 -5.87011e-13 -12.5536 17.8658 -45.71 27.8889 -29.9871 -67.2283 0.00908731 2.72074 -0.382666 5.01351e-10 -4.347e-10 1.1452e-09 8.71792e-10 -7.63534e-10 1.98299e-09 5.01344e-10 -4.34698e-10 1.14521e-09 -7.73091 5.47488 -0.417314 5.01353e-10 -4.34701e-10 1.14521e-09 -2.90554 0.965183 -0.102902 5.01343e-10 -4.34697e-10 1.14521e-09 -10.2786 0.731801 -0.0259123 5.01353e-10 -4.34703e-10 1.1452e-09 -2.22167 -0.733487 0.20892 -2.03217e-16 0.0 -3.88251e-19 27.3562 -71.8527 38.4829 -0.919596 56.5577 1.14439 -0.310276 3.52198 4.68689 2.03217e-16 0.0 3.88251e-19 -18.8947 -3.33776 23.2262 -0.0961595 19.6541 -1.30315 -1.70154 -22.0652 -5.91434
98.8363 73.1737 -7.27758 183.376 -25.6239 -161.007 4.1213 12.9142 -18.5306 6.07363 3.14543 -5.40439 -0.520355 13.577 11.4939 -3.80683 -46.7706 22.0557 -0.0 0.0 0.0 -0.0 0.0 0.0 2.23035e-13 -1.22561e-13 -5.53974e-13 38.9671 27.2083 57.8327 -28.3684 -33.7986 73.3827 -0.00412655 1.88875 0.265535 7.59476e-10 4.28686e-09 3.00194e-10 1.31415e-09 7.41429e-09 5.19317e-10 7.59479e-10 4.28687e-09 3.0019e-10 7.73091 5.47488 0.417314 7.59477e-10 4.28686e-09 3.00195e-10 2.90554 0.965183 0.102902 7.59483e-10 4.28686e-09 3.00197e-10 10.2786 0.731801 0.0259123 7.5947e-10 4.28686e-09 3.00207e-10 2.22167 -0.733487 -0.20892 2.22893e-13 -1.22541e-13 -5.54196e-13 -8.77365 16.7593 -45.2299 27.6539 -28.8307 -65.2711 0.0101572 2.6919 -0.378714 -1.103e-09 3.87635e-09 3.15852e-10 -1.90348e-09 6.70556e-09 5.53811e-10 -1.10301e-09 3.87635e-09 3.15857e-10 -7.73091 5.47488 -0.417314 -1.103e-09 3.87635e-09 3.15854e-10 -2.90554 0.965183 -0.102902 -1.10301e-09 3.87635e-09 3.15856e-10 -10.2786 0.731801 -0.0259123 -1.103e-09 3.87635e-09 3.15849e-10 -2.22167 -0.733487 0.20892 -2.03217e-16 0.0 -3.88251e-19 29.2043 -71.9264 40.8135 -0.919236 56.7612 1.20178 -0.313044 3.47797 4.71797 2.03217e-16 0.0 3.88251e-19 -20.4494 -1.39223 23.3343 -0.120586 15.5888 -1.28313 -1.74075 -22.8016 -5.89995
